<?xml version="1.0" encoding="UTF-8" standalone="no"?>
<svg
   width="1073.0835"
   height="868.49121"
   viewBox="0 0 1073.0835 868.49121"
   fill="none"
   version="1.1"
   id="svg122"
   sodipodi:docname="oc-chatting.svg"
   inkscape:version="1.1.1 (1:1.1+202109281949+c3084ef5ed)"
   xmlns:inkscape="http://www.inkscape.org/namespaces/inkscape"
   xmlns:sodipodi="http://sodipodi.sourceforge.net/DTD/sodipodi-0.dtd"
   xmlns="http://www.w3.org/2000/svg"
   xmlns:svg="http://www.w3.org/2000/svg">
  <defs
     id="defs126" />
  <sodipodi:namedview
     id="namedview124"
     pagecolor="#ffffff"
     bordercolor="#666666"
     borderopacity="1.0"
     inkscape:pageshadow="2"
     inkscape:pageopacity="0.0"
     inkscape:pagecheckerboard="0"
     showgrid="false"
     inkscape:zoom="0.61219793"
     inkscape:cx="541.49154"
     inkscape:cy="435.31673"
     inkscape:window-width="1294"
     inkscape:window-height="704"
     inkscape:window-x="72"
     inkscape:window-y="27"
     inkscape:window-maximized="1"
     inkscape:current-layer="svg122" />
  <path
     d="m 819.5,236.50305 9,20 -23,-6.5 c -39.2,30.8 -80,21.333 -91.5,14.5 -26.334,-13.5 -54,-45.5 -32.5,-79.5 24.519,-38.775 83.833,-23.167 106.5,-13.5 11.666,3.833 36.1,14.9 40.5,28.5 4.4,13.6 -4.167,30 -9,36.5 z"
     stroke="#223b41"
     stroke-width="5"
     stroke-linecap="round"
     id="path2" />
  <path
     d="m 720,188.50305 h 29.5"
     stroke="#223b41"
     stroke-width="5"
     stroke-linecap="round"
     id="path4"
     style="fill:#000000" />
  <path
     d="m 712.5,210.50305 h 74"
     stroke="#223b41"
     stroke-width="5"
     stroke-linecap="round"
     id="path6"
     style="fill:#000000" />
  <path
     d="m 710,229.00305 47.5,3"
     stroke="#223b41"
     stroke-width="5"
     stroke-linecap="round"
     id="path8"
     style="fill:#000000" />
  <path
     d="m 949,462.50305 c 39.2,0.4 50,-47.5 80.5,-45.5 -16,23 -6.67,48.5 4.5,53.5 -4.8,42 -25.67,83.5 -35.5,99 -14.167,23.5 -61.4,64.2 -137,39 -75.6,-25.2 -65.833,-97.167 -51.5,-130 11.5,-28 48.5,-8.5 51.5,-4 3,4.5 16.5,14 24.5,4 8,-10 14,-16.5 63,-16 z"
     fill="#223B41"
     id="path10"
     style="fill:#000000" />
  <path
     d="m 910.5,548.50305 c 8.333,2.333 26.4,3 32,-13"
     stroke="#ffffff"
     stroke-width="5"
     stroke-linecap="round"
     id="path12" />
  <path
     d="m 873,410.50305 c 0,18.018 -14.171,32.5 -31.5,32.5 -17.329,0 -31.5,-14.482 -31.5,-32.5 0,-18.018 14.171,-32.5 31.5,-32.5 17.329,0 31.5,14.482 31.5,32.5 z"
     stroke="#223b41"
     stroke-width="5"
     id="path14" />
  <path
     d="m 969,412.50305 c 0,17.983 -14.361,32.5 -32,32.5 -17.639,0 -32,-14.517 -32,-32.5 0,-17.983 14.361,-32.5 32,-32.5 17.639,0 32,14.517 32,32.5 z"
     stroke="#223b41"
     stroke-width="5"
     id="path16" />
  <ellipse
     cx="848"
     cy="418.00305"
     rx="6.5"
     ry="7.5"
     fill="#223b41"
     id="ellipse18" />
  <ellipse
     cx="931"
     cy="418.00305"
     rx="6.5"
     ry="7.5"
     fill="#223b41"
     id="ellipse20" />
  <path
     d="m 870.5,396.50305 c 6.552,-3.773 23.324,-9.055 38,0"
     stroke="#223b41"
     stroke-width="5"
     stroke-linecap="round"
     id="path22" />
  <path
     d="m 971.5,404.00305 76,-2.5"
     stroke="#223b41"
     stroke-width="5"
     stroke-linecap="round"
     id="path24" />
  <path
     d="m 1045.5,428.50305 c 1.5,4.333 3.6,14.8 0,22"
     stroke="#223b41"
     stroke-width="5"
     stroke-linecap="round"
     id="path26" />
  <path
     d="m 1032.5,412.00305 c 1,-2 29.88,-18.437 37.05,14.395 4.08,18.654 -3.79,50.768 -29.55,53.605"
     stroke="#223b41"
     stroke-width="5"
     stroke-linecap="round"
     id="path28" />
  <path
     d="m 873.61,411.50305 c 1.834,10.667 2.6,34.9 -9,46.5 -14.5,14.5 4.5,37.5 24,21.5"
     stroke="#223b41"
     stroke-width="5"
     stroke-linecap="round"
     id="path30" />
  <path
     d="m 822.5,476.50305 c -3.833,-6 -9.2,-21.7 0,-36.5 11.5,-18.5 33,-75.5 34.5,-101.5"
     stroke="#223b41"
     stroke-width="5"
     stroke-linecap="round"
     id="path32" />
  <path
     d="m 864.5,313.50305 c 8.5,-21 38.3,-62.5 89.5,-60.5 51.2,2 75.67,23.833 81.5,34.5 m 0,0 c 4.67,17.167 10.2,62.5 -5,106.5 l 24.5,10 c 5.83,-25 10.1,-83.3 -19.5,-116.5 z"
     stroke="#223b41"
     stroke-width="5"
     stroke-linecap="round"
     id="path34" />
  <path
     d="m 1030,395.50305 c -27.27,-71.062 -122.195,-84.646 -165.5,-81.554 l -61.5,1.054"
     stroke="#223b41"
     stroke-width="5"
     stroke-linecap="round"
     id="path36" />
  <path
     d="m 808.5,414.50305 c -24.833,4.167 -79.4,1.4 -81,-45 -2,-58 94.5,-70.5 131,-32 36.5,38.5 161.5,65.5 178,61"
     stroke="#223b41"
     stroke-width="5"
     stroke-linecap="round"
     id="path38" />
  <path
     d="m 782,519.00305 c 0.167,10.167 2.6,32.8 11,42"
     stroke="#223b41"
     stroke-width="5"
     stroke-linecap="round"
     id="path40" />
  <path
     d="m 850.5,395.60805 c 1.833,-4.833 8.4,-14.2 20,-13"
     stroke="#223b41"
     stroke-width="5"
     stroke-linecap="round"
     id="path42" />
  <path
     d="m 926.5,395.92005 c 4.167,-3.333 15,-8 25,0"
     stroke="#223b41"
     stroke-width="5"
     stroke-linecap="round"
     id="path44" />
  <path
     d="m 1009,548.50305 10,34 c 6.5,23 -103.5,80.5 -108.5,52 l -4.5,-26.5"
     stroke="#223b41"
     stroke-width="5"
     stroke-linecap="round"
     id="path46" />
  <path
     d="m 327.5,658.00305 c 22.4,-10 33.333,10.167 36,21.5 31.2,-16.4 45.333,-87.167 48.5,-120.5 35.6,29.2 79.833,12.167 97.5,0 44.288,-30.5 33.5,-63.375 6,-84 -16,-12 -21.667,-24.333 -24.5,-33.5 -7.833,12.167 -14.5,33.5 -35.5,45.5 -10.419,5.954 -42.5,6.571 -59.5,10.5 -90,20.8 -83.167,115.667 -68.5,160.5 z"
     fill="#223B41"
     id="path48"
     style="fill:#000000" />
  <path
     d="m 330,654.00305 c -6.333,11.833 -12.7,42 18.5,52 2.667,12 16.8,38.4 52,48 44,12 75.5,8 91,-3.5 15.5,-11.5 36,-42.5 38,-72"
     stroke="#223b41"
     stroke-width="5"
     stroke-linecap="round"
     id="path50" />
  <path
     d="m 512,678.00305 22.5,-1.5 c 4,-3.5 12,-17.5 -3.5,-21.5 -5.667,-1 -18.2,-5 -23,-13"
     stroke="#223b41"
     stroke-width="5"
     stroke-linecap="round"
     id="path52" />
  <path
     d="m 508,558.50305 c 3.167,3.833 9,14 7,24"
     stroke="#223b41"
     stroke-width="5"
     stroke-linecap="round"
     id="path54" />
  <path
     d="m 433,623.50305 c 1.167,-2.833 4.8,-9.5 10,-13.5"
     stroke="#223b41"
     stroke-width="5"
     stroke-linecap="round"
     id="path56" />
  <ellipse
     cx="471.5"
     cy="638.50305"
     rx="4"
     ry="6"
     fill="#223b41"
     id="ellipse58" />
  <ellipse
     cx="528.5"
     cy="612.50305"
     rx="4"
     ry="6"
     fill="#223b41"
     id="ellipse60" />
  <path
     d="m 486,642.00305 c 0,16.976 -11.568,30 -25,30 -13.432,0 -25,-13.024 -25,-30 0,-16.976 11.568,-30 25,-30 13.432,0 25,13.024 25,30 z"
     stroke="#223b41"
     stroke-width="5"
     id="path62" />
  <path
     d="m 538,614.50305 c 0,8.348 -2.541,15.809 -6.529,21.127 -3.988,5.318 -9.307,8.373 -14.971,8.373 -5.664,0 -10.983,-3.055 -14.971,-8.373 -3.988,-5.318 -6.529,-12.779 -6.529,-21.127 0,-8.348 2.541,-15.809 6.529,-21.127 3.988,-5.318 9.307,-8.373 14.971,-8.373 5.664,0 10.983,3.055 14.971,8.373 3.988,5.318 6.529,12.779 6.529,21.127 z"
     stroke="#223b41"
     stroke-width="5"
     id="path64" />
  <path
     d="m 483,626.50305 12,-6.5"
     stroke="#223b41"
     stroke-width="5"
     stroke-linecap="round"
     id="path66" />
  <path
     d="m 497,585.50305 c 1.333,-2.833 5.4,-8.4 11,-8"
     stroke="#223b41"
     stroke-width="5"
     stroke-linecap="round"
     id="path68" />
  <path
     d="m 391.5,643.50305 44,1.5"
     stroke="#223b41"
     stroke-width="5"
     stroke-linecap="round"
     id="path70" />
  <path
     d="m 345,673.00305 c -1.833,2.833 -4.4,9.5 0,13.5"
     stroke="#223b41"
     stroke-width="5"
     stroke-linecap="round"
     id="path72" />
  <path
     d="m 455,696.00305 c -4.667,1.167 -13,7.5 -9,23.5"
     stroke="#223b41"
     stroke-width="5"
     stroke-linecap="round"
     id="path74" />
  <path
     d="m 462.5,712.50305 c 11.833,-1.376 37.2,-6.503 44,-16"
     stroke="#223b41"
     stroke-width="5"
     stroke-linecap="round"
     id="path76" />
  <path
     d="m 461.5,713.00305 c 11.167,9.167 35.8,18.9 45,-15.5"
     stroke="#223b41"
     stroke-width="5"
     stroke-linecap="round"
     id="path78" />
  <path
     d="m 370.5,738.50305 c -3.833,5.167 -8.8,17.3 2,24.5 10.8,7.2 29.5,13.333 37.5,15.5 8.5,2.5 25.8,0.5 21,-17.5"
     stroke="#223b41"
     stroke-width="5"
     stroke-linecap="round"
     id="path80" />
  <path
     d="m 518.5,744.50305 c 7.333,-4 21.4,-16.7 19,-35.5"
     stroke="#223b41"
     stroke-width="5"
     stroke-linecap="round"
     id="path82" />
  <path
     d="m 561,788.50305 -6,-30.5 21,21.5 c 20,-19.6 86.838,-18.897 117.5,-9.5 31,9.5 41.5,36 29.5,61 -12,25 -82,44 -137.5,30.5 -44.4,-10.8 -34.833,-53.167 -24.5,-73 z"
     stroke="#223b41"
     stroke-width="5"
     stroke-linecap="round"
     id="path84" />
  <path
     d="m 596,800.00305 22.5,-5"
     stroke="#223b41"
     stroke-width="5"
     stroke-linecap="round"
     id="path86"
     style="fill:#000000" />
  <path
     d="m 594.5,821.00305 95,-12"
     stroke="#223b41"
     stroke-width="5"
     stroke-linecap="round"
     id="path88"
     style="fill:#000000" />
  <path
     d="m 595.5,840.49005 59.43,-7.002"
     stroke="#223b41"
     stroke-width="5"
     stroke-linecap="round"
     id="path90"
     style="fill:#000000" />
  <path
     d="m 171.522,403.50305 v 15.5 c -0.333,5.167 3,15.7 19,16.5 20,1 53,1.5 69.5,-4 13.2,-4.4 14.167,-18.167 13,-24.5"
     stroke="#223b41"
     stroke-width="5"
     stroke-linecap="round"
     id="path92" />
  <path
     d="m 168.5,404.50305 c -28,-21.5 -36,-42 -45,-62.5 -10.059,-1.724 -15.268,-3.801 -19,-6 -2.761,-1.627 -6.5,-5 -8,-8 -10.538,-21.076 -3.5,-32 3,-37.5 8.389,-7.098 18.1,-8.3 58.5,-17.5 40.4,-9.2 71.833,-55.167 82.5,-77 6,28.4 61.833,65.5 89,80.5 18.8,-36.8 1.167,-83 -10,-101.5 -51.6,-79.600095 -134.833,-66.833 -170,-50.5 -27,-45.000095 -80.1667,-24.832995 -92.5,-16 -25.6667,19.333 -49.7,66.7 -20.5,137.5 29.2,70.8 -12.1667,98.833 -36.5,104 29.2,58.4 123.167,61.333 168.5,54.5 z"
     fill="#223B41"
     id="path94"
     style="fill:#000000" />
  <path
     d="m 335,362.00305 c -1.5,6.167 -6.5,19.1 -14.5,21.5"
     stroke="#223b41"
     stroke-width="5"
     stroke-linecap="round"
     id="path96" />
  <path
     d="m 114.5,301.00305 c -2,4.5 -4.1,14.7 3.5,19.5"
     stroke="#223b41"
     stroke-width="5"
     stroke-linecap="round"
     id="path98" />
  <path
     d="m 328,276.00305 c -2.5,35.5 11,104 -60.5,130.5 -25.5,8.5 -78.4,10.6 -106,-9 -10.167,-6.667 -32,-25 -38,-53"
     stroke="#223b41"
     stroke-width="5"
     stroke-linecap="round"
     id="path100" />
  <path
     d="m 263.5,288.50305 c 0,9 3.932,19.267 11,28.5 5.741,7.5 -0.333,15.167 -7,19.5"
     stroke="#223b41"
     stroke-width="5"
     stroke-linecap="round"
     id="path102" />
  <ellipse
     cx="296.741"
     cy="284.50305"
     rx="7.5"
     ry="9"
     fill="#223b41"
     id="ellipse104" />
  <ellipse
     cx="227.741"
     cy="291.50305"
     rx="7.5"
     ry="9"
     fill="#223b41"
     id="ellipse106" />
  <path
     d="m 288.5,266.50305 c 2,-4.167 8,-11.9 16,-9.5"
     stroke="#223b41"
     stroke-width="5"
     stroke-linecap="round"
     id="path108" />
  <path
     d="m 211.5,266.00305 c 4.333,-2.667 15.6,-6.6 26,-1"
     stroke="#223b41"
     stroke-width="5"
     stroke-linecap="round"
     id="path110" />
  <path
     d="m 381.004,112.30705 c -7,11 -21.5,33 -23.5,33 l 4,-47.999795 c -9.5,-10 -21.6,-38 6,-70 27.6,-32.0000301 83.833,-26.33336007 108.5,-19.5000301 20.333,7.6666301 52.9,33.9000301 20.5,77.5000301 -32.4,43.599795 -90.5,36.166795 -115.5,26.999795 z"
     stroke="#223b41"
     stroke-width="5"
     stroke-linecap="round"
     id="path112" />
  <path
     d="m 383.5,47.503055 29.5,-5"
     stroke="#223b41"
     stroke-width="5"
     stroke-linecap="round"
     id="path114"
     style="fill:#000000" />
  <path
     d="m 388,68.003055 77.5,-12.5"
     stroke="#223b41"
     stroke-width="5"
     stroke-linecap="round"
     id="path116"
     style="fill:#000000" />
  <path
     d="m 396.5,90.503055 42,-5.5"
     stroke="#223b41"
     stroke-width="5"
     stroke-linecap="round"
     id="path118"
     style="fill:#000000" />
  <path
     d="m 231.741,353.00305 c 3.5,9.5 10,18.5 30,16"
     stroke="#223b41"
     stroke-width="5"
     stroke-linecap="round"
     id="path120" />
</svg>
